# xmcd
#
# Track frame offsets: 
#        150
#        10820
#        24387
#        37040
#
# Disc length: 719 seconds
#
# Revision: 0
# Processed by: cddbd v1.4PL0 Copyright (c) Steve Scherf et al.
# Submitted via: ExactAudioCopy v0.90b4
#
DISCID=2502cd04
DTITLE=Gary Clark - Make A Family [CD1)
DYEAR=1993
DGENRE=
TTITLE0=Make A Family
TTITLE1=Learning To Do Without Me (Live)
TTITLE2=The Second Summer Of Love (Live)
TTITLE3=Saturday Night (Live)
EXTD=
EXTT0=
EXTT1=
EXTT2=
EXTT3=
PLAYORDER=
